<?xml version="1.0" standalone="no"?><!DOCTYPE svg PUBLIC "-//W3C//DTD SVG 1.1//EN" "http://www.w3.org/Graphics/SVG/1.1/DTD/svg11.dtd"><svg class="icon" width="200px" height="200.00px" viewBox="0 0 1024 1024" version="1.1" xmlns="http://www.w3.org/2000/svg"><path d="M8.087485 516.982323C4.977071 234.556778 228.304759 3.142015 506.997807 0.031602c278.070965-3.110413 506.375315 223.949771 508.863646 506.997397 3.110413 282.425544-220.217275 514.46239-498.910323 516.950721-278.070965 2.488331-505.753232-223.949771-508.863645-506.997397" fill="#34495e" /><path d="M510.730304 224.603455c-34.836631 0-62.830352 31.726218-62.830353 70.917428 0 39.19121 27.993721 70.917427 62.830353 70.917427s62.830352-31.726218 62.830352-70.917427c-0.622083-39.19121-28.615804-70.917427-62.830352-70.917428z m0 114.463216c-21.772894 0-39.19121-19.906646-39.19121-44.167871 0-24.261225 17.418315-44.167871 39.19121-44.167872s39.19121 19.906646 39.191209 44.167872c-0.622083 24.261225-18.040398 44.167871-39.191209 44.167871z" fill="#ab615e" /><path d="M511.974469 339.066671h-1.244165c-21.772894 0-39.19121-19.906646-39.19121-44.167871 0-24.261225 17.418315-44.167871 39.19121-44.167872h1.244165V223.981373h-1.244165c-34.836631 0-62.830352 31.726218-62.830353 70.917427 0 39.19121 27.993721 70.917427 62.830353 70.917427h1.244165v-26.749556z" fill="#8c4f45" /><path d="M749.610059 621.492216c-88.957826-88.335743-50.388698-205.909373-69.673262-278.693048-22.394977-83.981164-313.529679-83.981164-336.546739 0-19.284564 72.161593 19.284564 190.357305-69.673262 278.693048-72.783675 67.184931-88.335743 65.940766-75.894089 84.603246 11.819571 18.662481 136.858193 37.324962 314.151762 37.324962s301.710108-18.662481 314.151762-37.324962c11.819571-18.662481-3.110413-17.418315-76.516172-84.603246z" fill="#f8b607" /><path d="M292.379277 691.78756c11.819571-10.575406 28.615804-24.883308 50.388698-46.656202l0.622083-0.622083C409.952907 574.836013 410.574989 490.854849 411.197072 423.047835c0.622083-27.371639 0.622083-52.877029 5.598744-72.161592 3.732496-14.929985 42.301623-34.836631 105.754059-39.19121-8.709158-0.622083-18.040398-1.244165-27.371639-1.244166-77.760337 0-125.038622 23.01706-129.393201 39.813293-4.976662 19.284564-4.976662 44.789954-5.598744 72.161593-0.622083 67.184931-1.866248 151.166095-67.807014 220.839357l-0.622083 0.622083c-22.394977 21.772894-38.569127 36.080796-50.388698 46.656202 38.569127 9.33124 125.038622 20.528729 253.80974 20.528729h14.929985c-108.864472-0.622083-182.892313-10.575406-217.728944-19.284564z" fill="#fdcf57" /><path d="M206.531865 692.409643a302.954273 32.970383 0 1 0 605.908546 0 302.954273 32.970383 0 1 0-605.908546 0Z" fill="#914730" /><path d="M503.265311 659.43926c-164.229832 0.622083-296.733446 14.929985-296.733446 32.970383s132.503614 32.3483 296.733446 32.970383V659.43926z" fill="#6e3d30" /><path d="M455.987026 660.061343c-1.866248 4.354579-3.732496 13.685819-3.732496 18.040398 0 25.505391 25.505391 46.656202 57.231608 46.656202s57.231608-21.150812 57.231608-46.656202c0-4.976662 0.622083-14.307902-1.244165-18.662481-10.575406-0.622083-103.88781-0.622083-109.486555 0.622083z" fill="#f8931f" /><path d="M509.486138 659.43926c-25.505391 0-51.010781 0.622083-54.121194 1.244165-1.866248 4.354579-3.732496 13.685819-3.732497 18.040399 0 25.505391 25.505391 46.656202 57.231608 46.656202h0.622083V659.43926z" fill="#cf701f" /><path d="M566.717746 678.723824c0-4.976662 0.622083-14.307902-1.244165-18.662481-10.575406-1.244165-103.88781-1.244165-109.486555 0-1.866248 4.354579-3.732496 13.685819-3.732496 18.040398v0.622083c6.220827-9.33124 106.998224-11.819571 114.463216 0z"  /></svg>