<?xml version="1.0" standalone="no"?><!DOCTYPE svg PUBLIC "-//W3C//DTD SVG 1.1//EN" "http://www.w3.org/Graphics/SVG/1.1/DTD/svg11.dtd"><svg class="icon" width="200px" height="200.00px" viewBox="0 0 1024 1024" version="1.1" xmlns="http://www.w3.org/2000/svg"><path d="M176.22401 559.967983a16 16 0 1 0 0 31.999999h73.599998a16 16 0 1 0 0-31.999999h-73.599998z" fill="#b48966" /><path d="M175.840011 495.967985a16 16 0 0 0-9.6 28.639999l159.583995 127.807996a16 16 0 1 0 19.999999-25.024L186.24001 499.647984a16 16 0 0 0-10.367999-3.679999z" fill="#b48966" /><path d="M239.776009 479.775985A16 16 0 0 0 224.000009 495.999985v63.999998a16 16 0 1 0 31.999999 0v-63.999998a16 16 0 0 0-16.255999-16.192zM774.143992 559.967983a16 16 0 1 0 0 31.999999h73.599998a16 16 0 1 0 0-31.999999h-73.599998z" fill="#b48966" /><path d="M847.71199 495.967985a16 16 0 0 0-9.888 3.679999l-159.615995 127.743996a16 16 0 1 0 19.999999 25.024l159.615995-127.807996a16 16 0 0 0-10.111999-28.639999z" fill="#b48966" /><path d="M783.775992 479.775985A16 16 0 0 0 767.999992 495.999985v63.999998a16 16 0 1 0 31.999999 0v-63.999998a16 16 0 0 0-16.255999-16.192z" fill="#b48966" /><path d="M735.999993 735.999977a223.999993 223.999993 0 0 1-223.999993 223.999993 223.999993 223.999993 0 0 1-223.999993-223.999993 223.999993 223.999993 0 0 1 223.999993-223.999993 223.999993 223.999993 0 0 1 223.999993 223.999993z" fill="#d8d7dc" /><path d="M512 511.999984a223.999993 223.999993 0 0 0-103.039997 25.183999C436.864002 561.023982 472.640001 575.999982 512 575.999982c39.327999 0 75.007998-14.944 102.943997-38.687999a223.999993 223.999993 0 0 0-102.943997-25.279999z" fill="#c7c6cd" /><path d="M421.120003 482.143985a31.999999 31.999999 0 0 0-22.271999 55.039998 160.095995 160.095995 0 0 0 226.303992 0 31.999999 31.999999 0 1 0-45.247998-45.279998A95.871997 95.871997 0 0 1 512 519.999984a95.999997 95.999997 0 0 1-67.935998-28.063999 31.999999 31.999999 0 0 0-22.943999-9.76z" fill="#fd0437" /><path d="M602.239997 482.079985a31.999999 31.999999 0 0 0-22.367999 9.856c-11.648 11.648-26.111999 19.519999-41.695999 23.935999a184.863994 184.863994 0 0 0-17.535999 67.263998 159.743995 159.743995 0 0 0 49.791998-10.432c4.48-27.199999 16.735999-53.247998 37.439999-73.951998a23.999999 23.999999 0 0 0 0.192-0.384c3.328-3.424 5.76-3.136 8.864-1.824 3.136 1.312 5.024 2.88 4.896 7.616a8 8 0 0 1-2.432 5.504 23.999999 23.999999 0 0 0-0.256 0.32 119.071996 119.071996 0 0 0-30.815999 53.759998c13.28-7.264 25.919999-15.68 36.799998-26.559999a31.999999 31.999999 0 0 0-22.879999-55.135998z" fill="#d60724" /><path d="M528 623.999981a16 16 0 0 1-16 15.999999 16 16 0 0 1-15.999999-15.999999 16 16 0 0 1 15.999999-16 16 16 0 0 1 16 16zM528 687.999979a16 16 0 0 1-16 15.999999 16 16 0 0 1-15.999999-15.999999 16 16 0 0 1 15.999999-16 16 16 0 0 1 16 16zM528 751.999977a16 16 0 0 1-16 15.999999 16 16 0 0 1-15.999999-15.999999 16 16 0 0 1 15.999999-16 16 16 0 0 1 16 16z" fill="#2a292e" /><path d="M645.759996 504.831984a31.999999 31.999999 0 0 1-9.664 22.016 95.679997 95.679997 0 0 0-8.448 126.111996 31.999999 31.999999 0 1 1-50.879998 38.815998 160.383995 160.383995 0 0 1 14.08-210.175993 31.999999 31.999999 0 0 1 54.911998 23.231999z" fill="#fd0437" /><path d="M685.439995 714.943978a10.4 10.4 0 0 1-12.736 9.919999 138.367996 138.367996 0 0 1-87.231997-59.999998 10.4 10.4 0 0 1 17.407999-11.359999 117.663996 117.663996 0 0 0 74.239998 51.007998 10.4 10.4 0 0 1 8.32 10.432z" fill="#d8d7dc" /><path d="M627.391996 712.703978a11.2 11.2 0 0 1-17.375999 8.383999 139.359996 139.359996 0 0 1-45.247999-47.487998 11.2 11.2 0 0 1 19.456-11.2c9.28 16.095999 22.271999 29.759999 37.919999 39.807999a11.2 11.2 0 0 1 5.247999 10.496z" fill="#fd0437" /><path d="M652.799996 679.071979a10.4 10.4 0 0 1-16.576 8.959999 138.271996 138.271996 0 0 1-30.495999-30.463999 10.4 10.4 0 0 1 16.768-12.287999c7.264 9.92 16 18.687999 25.951999 25.919999a10.4 10.4 0 0 1 4.384 7.872z" fill="#fd0437" /><path d="M639.999996 415.999987a127.999996 127.999996 0 0 1-127.999996 127.999996 127.999996 127.999996 0 0 1-127.999996-127.999996 127.999996 127.999996 0 0 1 127.999996-127.999996 127.999996 127.999996 0 0 1 127.999996 127.999996z" fill="#d8d7dc" /><path d="M368.000004 319.99999h287.999992a15.968 15.968 0 1 1 0 31.999999h-287.999992a15.968 15.968 0 1 1 0-31.999999z" fill="#3c3b41" /><path d="M418.656003 95.999997h186.687994c10.336 0 18.655999 8.16 18.656 18.271999v219.423994c0 10.144-8.32 18.303999-18.656 18.303999h-186.687994a18.431999 18.431999 0 0 1-18.656-18.303999V114.271996c0-10.112 8.32-18.271999 18.656-18.271999zM480.000001 399.999988a16 16 0 0 1-16 15.999999 16 16 0 0 1-15.999999-15.999999 16 16 0 0 1 15.999999-16 16 16 0 0 1 16 16zM575.999998 399.999988a16 16 0 0 1-16 15.999999 16 16 0 0 1-15.999999-15.999999 16 16 0 0 1 15.999999-16 16 16 0 0 1 16 16z" fill="#3c3b41" /><path d="M400.000003 287.999991h223.999994v31.999999h-223.999994V287.999991z" fill="#2a292e" /><path d="M533.343999 469.343985C533.343999 481.119985 512 511.999984 512 511.999984s-21.343999-30.879999-21.343999-42.655999a21.343999 21.343999 0 1 1 42.687998 0z" fill="#fda816" /></svg>